<?xml version="1.0" encoding="UTF-8" standalone="no"?>
<!DOCTYPE svg PUBLIC "-//W3C//DTD SVG 1.1//EN"
 "http://www.w3.org/Graphics/SVG/1.1/DTD/svg11.dtd">
<!-- Generated by graphviz version 14.1.4 (20260321.0153)
 -->
<!-- Title: G Pages: 1 -->
<svg width="1410pt" height="213pt"
 viewBox="0.00 0.00 1410.00 213.00" xmlns="http://www.w3.org/2000/svg" xmlns:xlink="http://www.w3.org/1999/xlink">
<g id="graph0" class="graph" transform="scale(1 1) rotate(0) translate(4 209)">
<title>G</title>
<polygon fill="white" stroke="none" points="-4,4 -4,-209 1406.25,-209 1406.25,4 -4,4"/>
<g id="clust1" class="cluster">
<title>cluster_module.vpc</title>
<polygon fill="none" stroke="black" points="8,-8 8,-197 1394.25,-197 1394.25,-8 8,-8"/>
<text xml:space="preserve" text-anchor="middle" x="701.12" y="-179.7" font-family="sans-serif" font-size="14.00">module.vpc</text>
</g>
<!-- module.vpc.data.aws_availability_zones.available -->
<g id="node1" class="node">
<title>module.vpc.data.aws_availability_zones.available</title>
<polygon fill="none" stroke="black" points="256.25,-52 16,-52 16,-16 256.25,-16 256.25,-52"/>
<text xml:space="preserve" text-anchor="middle" x="136.12" y="-28.2" font-family="sans-serif" font-size="14.00">data.aws_availability_zones.available</text>
</g>
<!-- module.vpc.aws_eip.nat_ip -->
<g id="node2" class="node">
<title>module.vpc.aws_eip.nat_ip</title>
<polygon fill="none" stroke="black" points="631.75,-146 525.75,-146 525.75,-110 631.75,-110 631.75,-146"/>
<text xml:space="preserve" text-anchor="middle" x="578.75" y="-122.2" font-family="sans-serif" font-size="14.00">aws_eip.nat_ip</text>
</g>
<!-- module.vpc.aws_subnet.public -->
<g id="node10" class="node">
<title>module.vpc.aws_subnet.public</title>
<polygon fill="none" stroke="black" points="442.5,-106 315.5,-106 315.5,-70 442.5,-70 442.5,-106"/>
<text xml:space="preserve" text-anchor="middle" x="379" y="-82.2" font-family="sans-serif" font-size="14.00">aws_subnet.public</text>
</g>
<!-- module.vpc.aws_eip.nat_ip&#45;&gt;module.vpc.aws_subnet.public -->
<g id="edge1" class="edge">
<title>module.vpc.aws_eip.nat_ip&#45;&gt;module.vpc.aws_subnet.public</title>
<path fill="none" stroke="black" d="M525.28,-117.39C503.45,-112.97 477.71,-107.76 454.02,-102.97"/>
<polygon fill="black" stroke="black" points="454.91,-99.58 444.42,-101.03 453.53,-106.44 454.91,-99.58"/>
</g>
<!-- module.vpc.aws_internet_gateway.igw -->
<g id="node3" class="node">
<title>module.vpc.aws_internet_gateway.igw</title>
<polygon fill="none" stroke="black" points="465.75,-160 292.25,-160 292.25,-124 465.75,-124 465.75,-160"/>
<text xml:space="preserve" text-anchor="middle" x="379" y="-136.2" font-family="sans-serif" font-size="14.00">aws_internet_gateway.igw</text>
</g>
<!-- module.vpc.aws_vpc.main -->
<g id="node11" class="node">
<title>module.vpc.aws_vpc.main</title>
<polygon fill="none" stroke="black" points="187.25,-106 85,-106 85,-70 187.25,-70 187.25,-106"/>
<text xml:space="preserve" text-anchor="middle" x="136.12" y="-82.2" font-family="sans-serif" font-size="14.00">aws_vpc.main</text>
</g>
<!-- module.vpc.aws_internet_gateway.igw&#45;&gt;module.vpc.aws_vpc.main -->
<g id="edge2" class="edge">
<title>module.vpc.aws_internet_gateway.igw&#45;&gt;module.vpc.aws_vpc.main</title>
<path fill="none" stroke="black" d="M295.78,-123.57C263.87,-116.41 227.98,-108.37 198.41,-101.74"/>
<polygon fill="black" stroke="black" points="199.41,-98.38 188.89,-99.6 197.88,-105.21 199.41,-98.38"/>
</g>
<!-- module.vpc.aws_nat_gateway.ngw -->
<g id="node4" class="node">
<title>module.vpc.aws_nat_gateway.ngw</title>
<polygon fill="none" stroke="black" points="882.12,-146 730.38,-146 730.38,-110 882.12,-110 882.12,-146"/>
<text xml:space="preserve" text-anchor="middle" x="806.25" y="-122.2" font-family="sans-serif" font-size="14.00">aws_nat_gateway.ngw</text>
</g>
<!-- module.vpc.aws_nat_gateway.ngw&#45;&gt;module.vpc.aws_eip.nat_ip -->
<g id="edge3" class="edge">
<title>module.vpc.aws_nat_gateway.ngw&#45;&gt;module.vpc.aws_eip.nat_ip</title>
<path fill="none" stroke="black" d="M730.16,-128C702.02,-128 670.35,-128 643.35,-128"/>
<polygon fill="black" stroke="black" points="643.6,-124.5 633.6,-128 643.6,-131.5 643.6,-124.5"/>
</g>
<!-- module.vpc.aws_nat_gateway.ngw&#45;&gt;module.vpc.aws_internet_gateway.igw -->
<g id="edge4" class="edge">
<title>module.vpc.aws_nat_gateway.ngw&#45;&gt;module.vpc.aws_internet_gateway.igw</title>
<path fill="none" stroke="black" d="M729.94,-144.31C706.31,-148.69 680.05,-152.82 655.75,-155 587.58,-161.11 570.1,-158.64 501.75,-155 493.8,-154.58 485.56,-154 477.3,-153.32"/>
<polygon fill="black" stroke="black" points="477.82,-149.85 467.55,-152.47 477.21,-156.83 477.82,-149.85"/>
</g>
<!-- module.vpc.aws_route_table.private -->
<g id="node5" class="node">
<title>module.vpc.aws_route_table.private</title>
<polygon fill="none" stroke="black" points="1116,-109 956.75,-109 956.75,-73 1116,-73 1116,-109"/>
<text xml:space="preserve" text-anchor="middle" x="1036.38" y="-85.2" font-family="sans-serif" font-size="14.00">aws_route_table.private</text>
</g>
<!-- module.vpc.aws_route_table.private&#45;&gt;module.vpc.aws_nat_gateway.ngw -->
<g id="edge5" class="edge">
<title>module.vpc.aws_route_table.private&#45;&gt;module.vpc.aws_nat_gateway.ngw</title>
<path fill="none" stroke="black" d="M956.55,-103.79C936.34,-107.06 914.49,-110.61 893.91,-113.95"/>
<polygon fill="black" stroke="black" points="893.42,-110.48 884.11,-115.53 894.55,-117.39 893.42,-110.48"/>
</g>
<!-- module.vpc.aws_route_table.public -->
<g id="node6" class="node">
<title>module.vpc.aws_route_table.public</title>
<polygon fill="none" stroke="black" points="655.75,-92 501.75,-92 501.75,-56 655.75,-56 655.75,-92"/>
<text xml:space="preserve" text-anchor="middle" x="578.75" y="-68.2" font-family="sans-serif" font-size="14.00">aws_route_table.public</text>
</g>
<!-- module.vpc.aws_route_table.public&#45;&gt;module.vpc.aws_internet_gateway.igw -->
<g id="edge6" class="edge">
<title>module.vpc.aws_route_table.public&#45;&gt;module.vpc.aws_internet_gateway.igw</title>
<path fill="none" stroke="black" d="M525.35,-92.39C517.43,-95.23 509.36,-98.17 501.75,-101 485.66,-106.99 481.95,-109.31 465.75,-115 460.98,-116.68 456.05,-118.36 451.07,-120.02"/>
<polygon fill="black" stroke="black" points="449.98,-116.7 441.57,-123.14 452.17,-123.34 449.98,-116.7"/>
</g>
<!-- module.vpc.aws_route_table_association.private -->
<g id="node7" class="node">
<title>module.vpc.aws_route_table_association.private</title>
<polygon fill="none" stroke="black" points="1386.25,-62 1152,-62 1152,-26 1386.25,-26 1386.25,-62"/>
<text xml:space="preserve" text-anchor="middle" x="1269.12" y="-38.2" font-family="sans-serif" font-size="14.00">aws_route_table_association.private</text>
</g>
<!-- module.vpc.aws_route_table_association.private&#45;&gt;module.vpc.aws_route_table.private -->
<g id="edge7" class="edge">
<title>module.vpc.aws_route_table_association.private&#45;&gt;module.vpc.aws_route_table.private</title>
<path fill="none" stroke="black" d="M1177.59,-62.44C1161.17,-65.78 1144.06,-69.27 1127.65,-72.61"/>
<polygon fill="black" stroke="black" points="1127.01,-69.17 1117.91,-74.6 1128.4,-76.03 1127.01,-69.17"/>
</g>
<!-- module.vpc.aws_subnet.private -->
<g id="node9" class="node">
<title>module.vpc.aws_subnet.private</title>
<polygon fill="none" stroke="black" points="445.12,-52 312.88,-52 312.88,-16 445.12,-16 445.12,-52"/>
<text xml:space="preserve" text-anchor="middle" x="379" y="-28.2" font-family="sans-serif" font-size="14.00">aws_subnet.private</text>
</g>
<!-- module.vpc.aws_route_table_association.private&#45;&gt;module.vpc.aws_subnet.private -->
<g id="edge8" class="edge">
<title>module.vpc.aws_route_table_association.private&#45;&gt;module.vpc.aws_subnet.private</title>
<path fill="none" stroke="black" d="M1151.55,-41.28C1084.12,-39.81 997.65,-38.06 920.75,-37 802.98,-35.37 773.53,-35.66 655.75,-35 588.6,-34.62 512.25,-34.36 456.94,-34.2"/>
<polygon fill="black" stroke="black" points="456.99,-30.7 446.98,-34.17 456.97,-37.7 456.99,-30.7"/>
</g>
<!-- module.vpc.aws_route_table_association.public -->
<g id="node8" class="node">
<title>module.vpc.aws_route_table_association.public</title>
<polygon fill="none" stroke="black" points="920.75,-82 691.75,-82 691.75,-46 920.75,-46 920.75,-82"/>
<text xml:space="preserve" text-anchor="middle" x="806.25" y="-58.2" font-family="sans-serif" font-size="14.00">aws_route_table_association.public</text>
</g>
<!-- module.vpc.aws_route_table_association.public&#45;&gt;module.vpc.aws_route_table.public -->
<g id="edge9" class="edge">
<title>module.vpc.aws_route_table_association.public&#45;&gt;module.vpc.aws_route_table.public</title>
<path fill="none" stroke="black" d="M691.51,-69.04C683.42,-69.4 675.34,-69.76 667.43,-70.11"/>
<polygon fill="black" stroke="black" points="667.33,-66.61 657.49,-70.55 667.64,-73.61 667.33,-66.61"/>
</g>
<!-- module.vpc.aws_route_table_association.public&#45;&gt;module.vpc.aws_subnet.public -->
<g id="edge10" class="edge">
<title>module.vpc.aws_route_table_association.public&#45;&gt;module.vpc.aws_subnet.public</title>
<path fill="none" stroke="black" d="M698.04,-45.52C639.58,-38.56 566.2,-34.91 501.75,-47 484.88,-50.17 481.95,-55.31 465.75,-61 460.98,-62.68 456.05,-64.36 451.07,-66.02"/>
<polygon fill="black" stroke="black" points="449.98,-62.7 441.57,-69.14 452.17,-69.34 449.98,-62.7"/>
</g>
<!-- module.vpc.aws_subnet.private&#45;&gt;module.vpc.data.aws_availability_zones.available -->
<g id="edge11" class="edge">
<title>module.vpc.aws_subnet.private&#45;&gt;module.vpc.data.aws_availability_zones.available</title>
<path fill="none" stroke="black" d="M312.5,-34C298.49,-34 283.21,-34 267.71,-34"/>
<polygon fill="black" stroke="black" points="267.91,-30.5 257.91,-34 267.91,-37.5 267.91,-30.5"/>
</g>
<!-- module.vpc.aws_subnet.private&#45;&gt;module.vpc.aws_vpc.main -->
<g id="edge12" class="edge">
<title>module.vpc.aws_subnet.private&#45;&gt;module.vpc.aws_vpc.main</title>
<path fill="none" stroke="black" d="M312.5,-48.68C277.05,-56.63 233.52,-66.39 198.69,-74.2"/>
<polygon fill="black" stroke="black" points="198.18,-70.72 189.19,-76.33 199.72,-77.56 198.18,-70.72"/>
</g>
<!-- module.vpc.aws_subnet.public&#45;&gt;module.vpc.data.aws_availability_zones.available -->
<g id="edge13" class="edge">
<title>module.vpc.aws_subnet.public&#45;&gt;module.vpc.data.aws_availability_zones.available</title>
<path fill="none" stroke="black" d="M315.03,-73.88C289.19,-68.09 258.73,-61.26 230.4,-54.91"/>
<polygon fill="black" stroke="black" points="231.24,-51.51 220.72,-52.74 229.71,-58.34 231.24,-51.51"/>
</g>
<!-- module.vpc.aws_subnet.public&#45;&gt;module.vpc.aws_vpc.main -->
<g id="edge14" class="edge">
<title>module.vpc.aws_subnet.public&#45;&gt;module.vpc.aws_vpc.main</title>
<path fill="none" stroke="black" d="M315.03,-88C279.18,-88 234.46,-88 198.83,-88"/>
<polygon fill="black" stroke="black" points="199.11,-84.5 189.11,-88 199.11,-91.5 199.11,-84.5"/>
</g>
</g>
</svg>
